<svg width="35" height="35" viewBox="0 0 35 35" fill="none" xmlns="http://www.w3.org/2000/svg">
<path d="M8.62955 8.12532C8.56462 8.00817 8.53216 7.88299 8.53216 7.75139C8.53216 7.6198 8.56625 7.4882 8.63605 7.37105C8.70585 7.25389 8.79838 7.16242 8.91363 7.09662C9.03051 7.03082 9.15226 6.99712 9.28375 6.99712C9.49154 6.99712 9.66848 7.07094 9.8162 7.21698C9.9623 7.36463 10.037 7.54276 10.037 7.75139C10.037 7.8846 10.0013 8.00977 9.92983 8.12532C9.85841 8.24248 9.76425 8.33556 9.64575 8.40296C9.52725 8.47197 9.40063 8.50567 9.26752 8.50567C9.13441 8.50567 9.01428 8.47197 8.90065 8.40296C8.78702 8.33395 8.69611 8.24248 8.63118 8.12532H8.62955ZM9.29024 6.40975C9.40063 6.40975 9.49641 6.37123 9.57757 6.2942C9.65874 6.21717 9.69932 6.12569 9.69932 6.01656C9.69932 5.89941 9.65874 5.80151 9.57757 5.72127C9.49641 5.64103 9.40063 5.60091 9.29024 5.60091C9.17986 5.60091 9.07759 5.64103 8.99318 5.72127C8.91039 5.80151 8.86818 5.90101 8.86818 6.01656C8.86818 6.12087 8.91039 6.21235 8.99642 6.29099C9.08246 6.36963 9.17986 6.40814 9.29024 6.40814V6.40975ZM0 11.9577V9.35303C0 4.53529 3.98687 0.592194 8.86169 0.592194H25.84C30.7132 0.592194 34.7017 4.53369 34.7017 9.35303V11.9577H0ZM7.80329 7.77547C7.80329 8.00977 7.8666 8.22803 7.99321 8.43024C8.11983 8.63406 8.29515 8.79615 8.51917 8.91651C8.74319 9.03687 8.99155 9.09786 9.26427 9.09786C9.53699 9.09786 9.78698 9.03687 10.0126 8.9133C10.2383 8.78973 10.4168 8.62764 10.5467 8.42703C10.6766 8.22643 10.7415 8.00817 10.7415 7.77386C10.7415 7.50425 10.6668 7.27476 10.5191 7.08859C10.3698 6.90083 10.1928 6.75318 9.98502 6.64405C10.1149 6.54295 10.2139 6.43863 10.2788 6.3295C10.3438 6.22038 10.3762 6.07754 10.3762 5.90101C10.3762 5.73571 10.3275 5.58646 10.2301 5.45166C10.1327 5.31685 9.99963 5.20932 9.82919 5.13069C9.66036 5.05205 9.47368 5.01353 9.27076 5.01353C9.06785 5.01353 8.88117 5.05205 8.71397 5.13069C8.54677 5.20932 8.41528 5.31845 8.3195 5.45968C8.22372 5.60091 8.17665 5.75818 8.17665 5.9315C8.17665 6.10483 8.20912 6.23321 8.27405 6.33913C8.33898 6.44666 8.43313 6.54776 8.55488 6.64405C8.35034 6.74516 8.17502 6.88799 8.02568 7.07576C7.87633 7.26352 7.80329 7.49622 7.80329 7.77386V7.77547ZM4.85209 5.73892H6.49002L5.15728 9.04971H5.95108L7.52083 5.06168H4.85047V5.73892H4.85209ZM14.8972 19.6048C15.1553 19.4266 15.3387 19.21 15.4491 18.9532C15.5579 18.6964 15.6131 18.4509 15.6131 18.2166C15.6131 17.817 15.4832 17.4478 15.2251 17.1092C14.967 16.7706 14.5303 16.6005 13.9183 16.6005H12.4995V19.8712H13.8794C14.2998 19.8712 14.6391 19.7829 14.8972 19.6048ZM10.9623 15.1417H13.67C14.756 15.1417 15.6066 15.4113 16.2186 15.9489C16.8322 16.4882 17.139 17.2344 17.139 18.1909C17.139 18.7381 17.0286 19.2485 16.8111 19.7219C16.5919 20.1953 16.2397 20.5821 15.7527 20.8822C15.2657 21.1823 14.6423 21.3316 13.8794 21.3316H12.4995V34.8989H22.3726V13.4165H0V26.1381C0 30.9558 3.98687 34.8989 8.86169 34.8989H10.9639V15.1417H10.9623ZM23.8969 13.4165V34.8989H25.8383C30.7115 34.8989 34.7 30.9574 34.7 26.1381V13.4165H23.8969Z" fill="#EE368C"/>
</svg>
