<?xml version="1.0" encoding="utf-8"?>
<!-- Generator: Adobe Illustrator 27.1.1, SVG Export Plug-In . SVG Version: 6.00 Build 0)  -->
<svg version="1.1" id="Layer_1" xmlns="http://www.w3.org/2000/svg" xmlns:xlink="http://www.w3.org/1999/xlink" x="0px" y="0px"
	 viewBox="0 0 1440 820" style="enable-background:new 0 0 1440 820;" xml:space="preserve">
<style type="text/css">
	.st0{opacity:0.5;}
	.st1{fill:none;stroke:#EE388C;stroke-width:20;stroke-miterlimit:5.6889;}
</style>
<g class="st0">
	<path class="st1" d="M497.65,10.85H386.18c-32,0-58.17,26.18-58.17,58.17v111.47c0,32,26.18,58.17,58.17,58.17h111.47
		c32,0,58.17-26.18,58.17-58.17V69.02C555.83,37.03,529.65,10.85,497.65,10.85z"/>
	<path class="st1" d="M223.77,10.85H112.3c-32,0-58.17,26.18-58.17,58.17v111.47c0,32,26.18,58.17,58.17,58.17h111.47
		c32,0,58.17-26.18,58.17-58.17V69.02C281.94,37.03,255.76,10.85,223.77,10.85z"/>
	<path class="st1" d="M1045.42,10.85H933.95c-32,0-58.17,26.18-58.17,58.17v111.47c0,32,26.18,58.17,58.17,58.17h111.47
		c32,0,58.17-26.18,58.17-58.17V69.02C1103.6,37.03,1077.42,10.85,1045.42,10.85z"/>
	<path class="st1" d="M1319.31,10.85h-111.47c-32,0-58.17,26.18-58.17,58.17v111.47c0,32,26.18,58.17,58.17,58.17h111.47
		c32,0,58.17-26.18,58.17-58.17V69.02C1377.49,37.03,1351.3,10.85,1319.31,10.85z"/>
	<path class="st1" d="M771.54,10.85H660.07c-32,0-58.17,26.18-58.17,58.17v111.47c0,32,26.18,58.17,58.17,58.17h111.47
		c32,0,58.17-26.18,58.17-58.17V69.02C829.71,37.03,803.53,10.85,771.54,10.85z"/>
</g>
<g class="st0">
	<path class="st1" d="M497.65,304.21H386.18c-32,0-58.17,26.18-58.17,58.17v111.47c0,32,26.18,58.17,58.17,58.17h111.47
		c32,0,58.17-26.18,58.17-58.17V362.38C555.83,330.39,529.65,304.21,497.65,304.21z"/>
	<path class="st1" d="M223.77,304.21H112.3c-32,0-58.17,26.18-58.17,58.17v111.47c0,32,26.18,58.17,58.17,58.17h111.47
		c32,0,58.17-26.18,58.17-58.17V362.38C281.94,330.39,255.76,304.21,223.77,304.21z"/>
	<path class="st1" d="M1045.42,304.21H933.95c-32,0-58.17,26.18-58.17,58.17v111.47c0,32,26.18,58.17,58.17,58.17h111.47
		c32,0,58.17-26.18,58.17-58.17V362.38C1103.6,330.39,1077.42,304.21,1045.42,304.21z"/>
	<path class="st1" d="M1319.31,304.21h-111.47c-32,0-58.17,26.18-58.17,58.17v111.47c0,32,26.18,58.17,58.17,58.17h111.47
		c32,0,58.17-26.18,58.17-58.17V362.38C1377.49,330.39,1351.3,304.21,1319.31,304.21z"/>
	<path class="st1" d="M771.54,304.21H660.07c-32,0-58.17,26.18-58.17,58.17v111.47c0,32,26.18,58.17,58.17,58.17h111.47
		c32,0,58.17-26.18,58.17-58.17V362.38C829.71,330.39,803.53,304.21,771.54,304.21z"/>
</g>
<g class="st0">
	<path class="st1" d="M497.65,581.33H386.18c-32,0-58.17,26.18-58.17,58.17v111.47c0,32,26.18,58.17,58.17,58.17h111.47
		c32,0,58.17-26.18,58.17-58.17V639.51C555.83,607.51,529.65,581.33,497.65,581.33z"/>
	<path class="st1" d="M223.77,581.33H112.3c-32,0-58.17,26.18-58.17,58.17v111.47c0,32,26.18,58.17,58.17,58.17h111.47
		c32,0,58.17-26.18,58.17-58.17V639.51C281.94,607.51,255.76,581.33,223.77,581.33z"/>
	<path class="st1" d="M1045.42,581.33H933.95c-32,0-58.17,26.18-58.17,58.17v111.47c0,32,26.18,58.17,58.17,58.17h111.47
		c32,0,58.17-26.18,58.17-58.17V639.51C1103.6,607.51,1077.42,581.33,1045.42,581.33z"/>
	<path class="st1" d="M1319.31,581.33h-111.47c-32,0-58.17,26.18-58.17,58.17v111.47c0,32,26.18,58.17,58.17,58.17h111.47
		c32,0,58.17-26.18,58.17-58.17V639.51C1377.49,607.51,1351.3,581.33,1319.31,581.33z"/>
	<path class="st1" d="M771.54,581.33H660.07c-32,0-58.17,26.18-58.17,58.17v111.47c0,32,26.18,58.17,58.17,58.17h111.47
		c32,0,58.17-26.18,58.17-58.17V639.51C829.71,607.51,803.53,581.33,771.54,581.33z"/>
</g>
</svg>
