<?xml version="1.0" encoding="utf-8"?>
<!-- Generator: Adobe Illustrator 27.1.1, SVG Export Plug-In . SVG Version: 6.00 Build 0)  -->
<svg version="1.1" id="Layer_1" xmlns="http://www.w3.org/2000/svg" xmlns:xlink="http://www.w3.org/1999/xlink" x="0px" y="0px"
	 viewBox="0 0 240 135" style="enable-background:new 0 0 240 135;" xml:space="preserve">
<style type="text/css">
	.st0{fill:#EE368C;}
</style>
<g>
	<g>
		<g>
			<path class="st0" d="M29.2,103.9c1.3,1.2,1.9,2.7,1.9,4.7c0,1.2-0.2,2.2-0.7,3.2c-0.4,1-1.2,1.8-2.2,2.5c-1,0.6-2.3,1-3.9,1h-2.7
				v6.1h-3.8v-19.3h5.8C26.1,102.2,27.9,102.8,29.2,103.9z M26.1,111.2c0.4-0.3,0.7-0.7,0.9-1.1c0.2-0.4,0.3-0.9,0.3-1.3
				c0-0.7-0.2-1.3-0.6-2c-0.4-0.6-1.2-1-2.3-1h-2.7v5.8h2.7C25.1,111.6,25.7,111.5,26.1,111.2z"/>
			<path class="st0" d="M37.3,102.2v15.6h9.1v3.7H33.5v-19.3H37.3z"/>
			<path class="st0" d="M58.7,117.7h-6.4l-1.6,3.8H47l8.7-20h0.2l8.7,20h-4.4L58.7,117.7z M57.5,114.5l-1.9-4.7l-1.9,4.7H57.5z"/>
			<path class="st0" d="M76.5,102.2v3.7h-4.7v15.6H68v-15.6h-4.5v-3.7H76.5z"/>
			<path class="st0" d="M82.9,102.2v19.3h-3.8v-19.3H82.9z"/>
			<path class="st0" d="M104.1,102.2v20H104L90.6,110l0.1,11.4h-3.8v-20H87l13.4,12.3l-0.1-11.6H104.1z"/>
			<path class="st0" d="M112,116.1c0.4,0.6,0.9,1,1.5,1.4c0.6,0.3,1.3,0.5,2,0.5c0.7,0,1.4-0.2,2.1-0.5c0.6-0.3,1.1-0.8,1.5-1.4
				c0.4-0.6,0.5-1.1,0.5-1.8v-12.1h3.7v12.2c0,1.4-0.3,2.6-1,3.7c-0.7,1.1-1.6,2-2.8,2.6c-1.2,0.6-2.5,0.9-3.9,0.9
				c-1.4,0-2.7-0.3-3.9-0.9c-1.2-0.6-2.1-1.5-2.8-2.6c-0.7-1.1-1-2.3-1-3.7v-12.2h3.8v12.1C111.5,114.9,111.7,115.5,112,116.1z"/>
			<path class="st0" d="M146.6,101.4v20h-3.8v-9.2l-6.3,8.9h-0.1l-6-8.3v8.6h-3.7v-20h0l9.8,13.8L146.6,101.4L146.6,101.4z"/>
			<path class="st0" d="M170.1,121c-1.1,0.4-2.2,0.6-3.5,0.6c-2,0-3.7-0.4-5.2-1.3c-1.5-0.9-2.6-2-3.4-3.5c-0.8-1.5-1.2-3.1-1.2-4.9
				c0-1.9,0.4-3.7,1.2-5.2c0.8-1.5,1.9-2.7,3.3-3.5c1.4-0.8,3-1.3,4.9-1.3c1.2,0,2.2,0.2,3.2,0.5c1,0.3,1.9,0.7,2.6,1.2l-1.5,3.6
				c-1.4-1-2.8-1.6-4.2-1.6c-1,0-1.9,0.3-2.7,0.8c-0.9,0.5-1.5,1.3-2,2.2c-0.5,0.9-0.8,2-0.8,3.1c0,1.2,0.2,2.3,0.7,3.3
				c0.5,0.9,1.1,1.7,2,2.2c0.9,0.5,1.9,0.8,3.1,0.8c0.9,0,1.8-0.2,2.5-0.5c0.7-0.3,1.3-0.7,1.8-1.1l1.6,3.4
				C172,120.2,171.2,120.6,170.1,121z"/>
			<path class="st0" d="M184.7,117.7h-6.4l-1.6,3.8H173l8.7-20h0.2l8.7,20h-4.4L184.7,117.7z M183.5,114.5l-1.9-4.7l-1.9,4.7H183.5z
				"/>
			<path class="st0" d="M198.3,105.4c-0.8,0-1.5,0.2-1.9,0.5c-0.5,0.3-0.7,0.8-0.7,1.5c0,0.6,0.3,1.1,1,1.6c0.7,0.5,1.6,0.9,2.7,1.3
				c0.9,0.3,1.7,0.7,2.3,1.1c0.6,0.4,1.2,1,1.6,1.8c0.4,0.8,0.6,1.7,0.6,2.9c0,1-0.3,1.9-0.8,2.8c-0.5,0.8-1.3,1.5-2.3,2
				c-1,0.5-2.2,0.7-3.6,0.7c-1.2,0-2.3-0.2-3.4-0.5c-1.1-0.3-2.2-0.9-3.2-1.6l1.7-3c0.7,0.5,1.4,0.9,2.3,1.2
				c0.9,0.3,1.6,0.5,2.3,0.5c0.8,0,1.5-0.2,2.1-0.5c0.6-0.3,0.9-0.9,0.9-1.7c0-1-0.9-1.9-2.8-2.6c-1.1-0.4-2-0.9-2.7-1.3
				c-0.7-0.4-1.4-1-1.9-1.7c-0.5-0.7-0.8-1.7-0.8-2.8c0-1.7,0.5-3,1.6-4c1.1-1,2.5-1.6,4.4-1.6c1.4,0,2.6,0.2,3.6,0.5
				c1,0.3,1.9,0.8,2.8,1.4l-1.4,2.9C201,105.9,199.5,105.4,198.3,105.4z"/>
			<path class="st0" d="M210.3,110l0.6-0.7l6.3-7.1h4.9l-8,8.6l8,10.6h-4.8l-5.9-8.2l-0.9,0.9v7.3h-3.8v-19.3h3.8v6.9L210.3,110z"/>
		</g>
	</g>
	<path class="st0" d="M97.8,24.2c-0.2-0.3-0.2-0.6-0.2-0.9c0-0.3,0.1-0.6,0.2-0.9c0.2-0.3,0.4-0.5,0.7-0.7c0.3-0.2,0.6-0.2,0.9-0.2
		c0.5,0,0.9,0.2,1.3,0.5c0.4,0.4,0.5,0.8,0.5,1.3c0,0.3-0.1,0.6-0.3,0.9c-0.2,0.3-0.4,0.5-0.7,0.7c-0.3,0.2-0.6,0.2-0.9,0.2
		c-0.3,0-0.6-0.1-0.9-0.2C98.1,24.7,97.9,24.4,97.8,24.2z M99.4,20c0.3,0,0.5-0.1,0.7-0.3c0.2-0.2,0.3-0.4,0.3-0.7
		c0-0.3-0.1-0.5-0.3-0.7c-0.2-0.2-0.4-0.3-0.7-0.3c-0.3,0-0.5,0.1-0.7,0.3c-0.2,0.2-0.3,0.4-0.3,0.7c0,0.3,0.1,0.5,0.3,0.7
		C98.9,19.9,99.1,20,99.4,20z M77,33.5v-6.3c0-11.7,9.6-21.3,21.3-21.3h40.9c11.7,0,21.3,9.6,21.3,21.3v6.3H77z M95.8,23.3
		c0,0.6,0.2,1.1,0.5,1.6c0.3,0.5,0.7,0.9,1.3,1.2c0.5,0.3,1.1,0.4,1.8,0.4c0.7,0,1.3-0.1,1.8-0.4c0.5-0.3,1-0.7,1.3-1.2
		c0.3-0.5,0.5-1,0.5-1.6c0-0.7-0.2-1.2-0.5-1.7c-0.4-0.5-0.8-0.8-1.3-1.1c0.3-0.2,0.5-0.5,0.7-0.8c0.2-0.3,0.2-0.6,0.2-1
		c0-0.4-0.1-0.8-0.4-1.1c-0.2-0.3-0.6-0.6-1-0.8c-0.4-0.2-0.9-0.3-1.3-0.3c-0.5,0-0.9,0.1-1.3,0.3c-0.4,0.2-0.7,0.5-0.9,0.8
		c-0.2,0.3-0.3,0.7-0.3,1.1c0,0.4,0.1,0.7,0.2,1c0.2,0.3,0.4,0.5,0.7,0.7c-0.5,0.2-0.9,0.6-1.3,1.1C96,22.1,95.8,22.6,95.8,23.3z
		 M88.7,18.3h3.9l-3.2,8.1h1.9l3.8-9.7h-6.4V18.3z M112.9,52.1c0.6-0.4,1.1-1,1.3-1.6c0.3-0.6,0.4-1.2,0.4-1.8c0-1-0.3-1.9-0.9-2.7
		c-0.6-0.8-1.7-1.2-3.1-1.2h-3.4v8h3.3C111.4,52.7,112.2,52.5,112.9,52.1z M103.4,41.2h6.5c2.6,0,4.7,0.7,6.1,2
		c1.5,1.3,2.2,3.1,2.2,5.5c0,1.3-0.3,2.6-0.8,3.7c-0.5,1.2-1.4,2.1-2.5,2.8c-1.2,0.7-2.7,1.1-4.5,1.1h-3.3v33h23.8V37H77v31
		c0,11.7,9.6,21.3,21.3,21.3h5.1V41.2z M134.5,37v52.3h4.7c11.7,0,21.3-9.6,21.3-21.3V37H134.5z"/>
</g>
</svg>
