<svg width="133" height="35" viewBox="0 0 133 35" fill="none" xmlns="http://www.w3.org/2000/svg">
<g clip-path="url(#clip0_148_302)">
<path d="M47.3748 1.8199C48.3164 2.65602 48.7871 3.79706 48.7871 5.24303C48.7871 6.07273 48.6248 6.84947 48.3001 7.57165C47.9755 8.29544 47.4479 8.88923 46.7174 9.35303C45.9853 9.81843 45.0421 10.0511 43.8847 10.0511H41.901V14.4452H39.1349V0.564911H43.388C45.1054 0.564911 46.4333 0.983775 47.3748 1.81829V1.8199ZM45.1233 7.04366C45.4415 6.81096 45.6704 6.53813 45.81 6.22358C45.9496 5.90903 46.0194 5.60732 46.0194 5.31845C46.0194 4.82737 45.8733 4.35394 45.5811 3.89496C45.2889 3.43597 44.7223 3.20648 43.8831 3.20648H41.8994V7.39351H43.8636C44.3847 7.39351 44.8051 7.27797 45.1233 7.04526V7.04366Z" fill="#EE368C"/>
<path d="M53.2691 0.564911V11.8036H59.8696V14.4436H50.5046V0.564911H53.2708H53.2691Z" fill="#EE368C"/>
<path d="M68.9098 11.7298H64.2558L63.1113 14.4452H60.3842L66.7151 0.0192566H66.8677L73.2002 14.4452H69.9958L68.9082 11.7298H68.9098ZM67.9943 9.42845L66.6404 6.05346L65.2281 9.42845H67.9943Z" fill="#EE368C"/>
<path d="M81.8428 0.564911V3.20488H78.4289V14.4436H75.6628V3.20648H72.3821V0.564911H81.8428Z" fill="#EE368C"/>
<path d="M86.5163 0.564911V14.4436H83.7501V0.564911H86.5163Z" fill="#EE368C"/>
<path d="M102.024 0.564903V15.0101H101.948L92.1232 6.24123L92.18 14.4436H89.3766V0.0192566H89.4902L99.2951 8.91971L99.2382 0.566508H102.024V0.564903Z" fill="#EE368C"/>
<path d="M107.764 10.5791C108.032 10.9819 108.387 11.3077 108.832 11.5597C109.277 11.8116 109.754 11.9368 110.262 11.9368C110.809 11.9368 111.311 11.8116 111.769 11.5597C112.226 11.3077 112.585 10.9819 112.846 10.5791C113.106 10.1763 113.238 9.75584 113.238 9.31611V0.564911H115.965V9.37068C115.965 10.3641 115.71 11.2596 115.202 12.0588C114.694 12.858 114.004 13.4791 113.132 13.9252C112.26 14.3714 111.304 14.5944 110.262 14.5944C109.22 14.5944 108.265 14.3714 107.4 13.9252C106.535 13.4791 105.852 12.8564 105.35 12.0588C104.847 11.2612 104.597 10.3641 104.597 9.37068V0.564911H107.363V9.31451C107.363 9.75424 107.496 10.1763 107.764 10.5775V10.5791Z" fill="#EE368C"/>
<path d="M133 0V14.4452H130.234V7.82682L125.656 14.2574H125.619L121.213 8.24247V14.4468H118.543V0H118.562L125.677 9.9757L132.963 0H133.002H133Z" fill="#EE368C"/>
<path d="M47.9657 34.5667C47.1898 34.8556 46.344 35 45.4285 35C43.9659 35 42.6948 34.6855 41.6137 34.0564C40.5326 33.4273 39.7063 32.5831 39.1333 31.5207C38.5602 30.4583 38.2745 29.2932 38.2745 28.0222C38.2745 26.6259 38.5602 25.3822 39.1333 24.2877C39.7063 23.1932 40.5066 22.3426 41.5374 21.7328C42.5682 21.1229 43.7565 20.818 45.1038 20.818C45.9561 20.818 46.745 20.932 47.469 21.1582C48.1946 21.3845 48.8293 21.667 49.3764 22.0072L48.2888 24.591C47.2839 23.8367 46.2548 23.4596 45.198 23.4596C44.4853 23.4596 43.8182 23.6554 43.1948 24.0438C42.5715 24.4337 42.0763 24.9649 41.7062 25.6374C41.3377 26.3098 41.1527 27.0544 41.1527 27.8713C41.1527 28.7636 41.3247 29.5468 41.6673 30.2192C42.0114 30.8916 42.5 31.4164 43.1364 31.7935C43.7727 32.1707 44.5162 32.36 45.3684 32.36C46.0551 32.36 46.672 32.2493 47.219 32.0295C47.7661 31.8096 48.1979 31.548 48.516 31.2463L49.6605 33.6985C49.305 33.9874 48.7384 34.2762 47.9625 34.5667H47.9657Z" fill="#EE368C"/>
<path d="M58.6098 32.1337H53.9557L52.8113 34.8491H50.0841L56.4167 20.4232H56.5693L62.9018 34.8491H59.6974L58.6098 32.1337ZM57.6942 29.8324L56.3404 26.4574L54.9281 29.8324H57.6942Z" fill="#EE368C"/>
<path d="M68.4893 23.3264C67.8789 23.3264 67.4049 23.4467 67.0689 23.6842C66.7313 23.9234 66.5641 24.2812 66.5641 24.7595C66.5641 25.1992 66.8092 25.586 67.2978 25.9198C67.7864 26.2536 68.439 26.5698 69.2523 26.8715C69.913 27.1106 70.4795 27.3834 70.9503 27.6915C71.421 27.9997 71.8122 28.4233 72.1239 28.9642C72.4356 29.505 72.5914 30.1903 72.5914 31.02C72.5914 31.7357 72.4031 32.4001 72.0281 33.01C71.6532 33.6198 71.1028 34.1045 70.3789 34.4624C69.6549 34.8202 68.7896 35 67.7848 35C66.9455 35 66.1128 34.878 65.2865 34.6325C64.4602 34.3869 63.6908 34.013 62.9781 33.5107L64.1989 31.3795C64.6826 31.7309 65.2346 32.0214 65.8579 32.2477C66.4813 32.474 67.0413 32.5879 67.5364 32.5879C68.1208 32.5879 68.6305 32.4659 69.0623 32.2204C69.4941 31.9749 69.7117 31.5769 69.7117 31.0232C69.7117 30.3058 69.0315 29.6847 67.6712 29.1568C66.8709 28.8422 66.2021 28.5405 65.668 28.2516C65.1339 27.9628 64.6729 27.5471 64.2849 27.0063C63.8969 26.4654 63.7038 25.7866 63.7038 24.9697C63.7038 23.7757 64.1015 22.8144 64.8953 22.0842C65.6907 21.3556 66.7491 20.9592 68.0705 20.8966C69.1127 20.8966 69.9844 21.0138 70.684 21.2449C71.3837 21.4776 72.0639 21.8082 72.7245 22.2351L71.6759 24.3278C70.4552 23.6618 69.3935 23.328 68.4909 23.328L68.4893 23.3264Z" fill="#EE368C"/>
<path d="M77.265 26.6083L77.6854 26.0803L82.2632 20.9705H85.8491L80.0506 27.194L85.8686 34.8507H82.3589L78.0296 28.9289L77.3429 29.6077V34.8507H74.5394V20.9721H77.3429V25.9134L77.2666 26.6115L77.265 26.6083Z" fill="#EE368C"/>
<path d="M8.62955 8.12532C8.56462 8.00817 8.53216 7.88299 8.53216 7.75139C8.53216 7.6198 8.56625 7.4882 8.63605 7.37105C8.70585 7.25389 8.79838 7.16242 8.91363 7.09662C9.03051 7.03082 9.15226 6.99712 9.28375 6.99712C9.49154 6.99712 9.66848 7.07094 9.8162 7.21698C9.9623 7.36463 10.037 7.54276 10.037 7.75139C10.037 7.8846 10.0013 8.00977 9.92983 8.12532C9.85841 8.24248 9.76425 8.33556 9.64575 8.40296C9.52725 8.47197 9.40063 8.50567 9.26752 8.50567C9.13441 8.50567 9.01428 8.47197 8.90065 8.40296C8.78702 8.33395 8.69611 8.24248 8.63118 8.12532H8.62955ZM9.29024 6.40975C9.40063 6.40975 9.49641 6.37123 9.57757 6.2942C9.65874 6.21717 9.69932 6.12569 9.69932 6.01656C9.69932 5.89941 9.65874 5.80151 9.57757 5.72127C9.49641 5.64103 9.40063 5.60091 9.29024 5.60091C9.17986 5.60091 9.07759 5.64103 8.99318 5.72127C8.91039 5.80151 8.86818 5.90101 8.86818 6.01656C8.86818 6.12087 8.91039 6.21235 8.99642 6.29099C9.08246 6.36963 9.17986 6.40814 9.29024 6.40814V6.40975ZM0 11.9577V9.35303C0 4.53529 3.98687 0.592194 8.86169 0.592194H25.84C30.7132 0.592194 34.7017 4.53369 34.7017 9.35303V11.9577H0ZM7.80329 7.77547C7.80329 8.00977 7.8666 8.22803 7.99321 8.43024C8.11983 8.63406 8.29515 8.79615 8.51917 8.91651C8.74319 9.03687 8.99155 9.09786 9.26427 9.09786C9.53699 9.09786 9.78698 9.03687 10.0126 8.9133C10.2383 8.78973 10.4168 8.62764 10.5467 8.42703C10.6766 8.22643 10.7415 8.00817 10.7415 7.77386C10.7415 7.50425 10.6668 7.27476 10.5191 7.08859C10.3698 6.90083 10.1928 6.75318 9.98502 6.64405C10.1149 6.54295 10.2139 6.43863 10.2788 6.3295C10.3438 6.22038 10.3762 6.07754 10.3762 5.90101C10.3762 5.73571 10.3275 5.58646 10.2301 5.45166C10.1327 5.31685 9.99963 5.20932 9.82919 5.13069C9.66036 5.05205 9.47368 5.01353 9.27076 5.01353C9.06785 5.01353 8.88117 5.05205 8.71397 5.13069C8.54677 5.20932 8.41528 5.31845 8.3195 5.45968C8.22372 5.60091 8.17665 5.75818 8.17665 5.9315C8.17665 6.10483 8.20912 6.23321 8.27405 6.33913C8.33898 6.44666 8.43313 6.54776 8.55488 6.64405C8.35034 6.74516 8.17502 6.88799 8.02568 7.07576C7.87633 7.26352 7.80329 7.49622 7.80329 7.77386V7.77547ZM4.85209 5.73892H6.49002L5.15728 9.04971H5.95108L7.52083 5.06168H4.85047V5.73892H4.85209ZM14.8972 19.6048C15.1553 19.4266 15.3387 19.21 15.4491 18.9532C15.5579 18.6964 15.6131 18.4509 15.6131 18.2166C15.6131 17.817 15.4832 17.4478 15.2251 17.1092C14.967 16.7706 14.5303 16.6005 13.9183 16.6005H12.4995V19.8712H13.8794C14.2998 19.8712 14.6391 19.7829 14.8972 19.6048ZM10.9623 15.1417H13.67C14.756 15.1417 15.6066 15.4113 16.2186 15.9489C16.8322 16.4882 17.139 17.2344 17.139 18.1909C17.139 18.7381 17.0286 19.2485 16.8111 19.7219C16.5919 20.1953 16.2397 20.5821 15.7527 20.8822C15.2657 21.1823 14.6423 21.3316 13.8794 21.3316H12.4995V34.8989H22.3726V13.4165H0V26.1381C0 30.9558 3.98687 34.8989 8.86169 34.8989H10.9639V15.1417H10.9623ZM23.8969 13.4165V34.8989H25.8383C30.7115 34.8989 34.7 30.9574 34.7 26.1381V13.4165H23.8969Z" fill="#EE368C"/>
</g>
<defs>
<clipPath id="clip0_148_302">
<rect width="133" height="35" fill="white"/>
</clipPath>
</defs>
</svg>
